<svg xmlns:svg="http://www.w3.org/2000/svg" xmlns="http://www.w3.org/2000/svg" version="1.1" x="0" y="0" viewBox="-287.2 105.1 259.2 291" xml:space="preserve"><path d="M-167.8 105.1c-5.6 0.1-11.5 2-15.7 5.6 -7.5 6.5-15 13.2-14.8 22 0.3 8.8 5.2 13.8 5.2 13.8s3.4 2.6 0 5.2c-3.4 2.6-43.3 28-41.2 80.4 0 0 1 13.6-0.5 28.2 -1.1 10.4 2.6 23.1 4.7 29.4 0.1 0.1 1.1 2.7-1.2 1.1 -10.8-6.8-19.7-16.9-27.1-29.6 -6.8-12.3-10.7-26.6-10.7-41.8 0-32.2 17.5-60.3 43.3-74.8 -35.4 9.8-61.4 42.9-61.4 82.2 0 3 0.1 6 0.4 8.9 0.3 6.8 1 17.6 2.9 21.9 2.9 6.5 2.6 20.5 2.6 22.8 0 2.3 0.8 79.1 46.2 78.9 0 0 21.6 0.5 21.8-8.3 0.1-7.8-2.1-8.6-4.1-13.1 -1.9-4.3-3.4-4.5-2.3-18.3 0 0 0.1-2.8 1.1-2.8 1-0.1 13.7 37.6 30 57.3 16.3 19.7 32.7 21.8 45.1 21.8 0 0 23.3 0 23.3-11.7 0-11.7-10.6-7-10.6-44.1 0-37.1 17.9-35.3 20-26.2 2.1 9.1 3.9 16.3 0.3 40.7 -3.6 24.4 6.2 27.2 15.3 27.2s56.8 1.5 65.1-134.9c0 0 1-22-6.2-41 0 0 3.1 36.3-19.5 55.8s-35.5 16.6-35.5 16.6 -10.9-0.8-15.3 4.7c-4.4 5.4-3.6 9.3-13 6.5 -9.3-2.9-9.4-5.2-17.9-4.1s-13.7 2.1-17.1-4.9c-3.4-7-7.1-11.5-14.1-12.8 -7-1.3-37.8-15.9-37-57.2 0.8-38.4 18.2-51.6 18.2-51.6s2.9-3.1 5.7-1.8c2.9 1.3 7.5 1.6 13-3.4s9.1-8.8 18.9-12.2c0 0 6.8-1 6.5-7.8 -0.3-6.7-5.7-21.5-12.7-25.9C-159.3 105.9-163.4 105-167.8 105.1zM-144.2 290.8c1.6-0.1 3.8 1 6.2 1.9 3.5 1.3 11.4 0.7 14.5 0.5 3.1-0.2 5.2 1.1 2.7 4.1 -3.4 4.1-7.5 3.9-12.7 4.3s-10.7-4.7-10.7-4.7c-0.3-0.5-2.8-3.2-1.6-5.1C-145.5 291.1-144.9 290.8-144.2 290.8zM-170.7 208c6-7.4 9.3-8.3 14.5-8.3 5.2 0 12.4 3.3 14.5 11.4 2.3 8.8 3.5 10.2-4.9 20 -6 7.1-16.9 22.5-27.8 12.7C-185.2 233.9-181.2 220.8-170.7 208zM-73.3 221.7c-3.5-8.8-6.4-10.7-11.4-12.3 -4.9-1.6-12.8-0.5-17.3 6.5 -4.9 7.7-6.6 8.4-1.5 20.4 3.6 8.5 9.5 26.8 22.9 20.6C-67.2 250.8-67.1 237.1-73.3 221.7zM-130.7 279.6c2.8-4.3 9.2-5.8 13-5.9 4.9-0.2 4.8-4.4 4.8-4.4s0.3-4.3-17.4-6c-17.7-1.7-18.2 2.8-18.2 2.8s-0.8 4.2 4 5.2c3.7 0.8 9.7 3.5 11.7 8.2C-132.4 280.6-131.3 280.7-130.7 279.6zM-47.1 173.2c-3 1-7.6 0.7-12.5-4.8s-8-9.8-17.5-14.2c0 0-6.6-1.8-5.6-8.5s8.1-20.8 15.5-24.4c7.4-3.6 20-1.4 26.8 5.9 6.8 7.3 13.5 14.8 12.3 23.6 -1.2 8.7-6.7 13.1-6.7 13.1l0.1 0C-37.4 167.3-47.1 173.2-47.1 173.2z"/></svg>