<svg xmlns="http://www.w3.org/2000/svg" version="1" id="hand" x="0" y="0" viewBox="-224 102.5 391.8 391.8" enable-background="new -224 102.523 391.757 391.757" xml:space="preserve"><path d="M88.2 371.9c0 60.8-49.4 110.2-110.2 110.2h-12.2c-60.8 0-110.2-49.4-110.2-110.2v-24.5l0 0c0-13.5 11-24.5 24.5-24.5h24.5l0 0h12.2 24.5c2.1 0 4.2 0.4 6.1 0.9v8.3c0 1.7-1.4 3.1-3.1 3.1h-24.5c-1.7 0-3.1 1.4-3.1 3.1 0 1.7 1.4 3.1 3.1 3.1h27.5c3.4 0 6.1-2.7 6.1-6.1v-8.8c7 4.1 11.7 11.4 12.1 20 0.6 14-10.5 25.6-24.4 25.6h-30.6c-3.4 0-6.1 2.7-6.1 6.1s2.7 6.1 6.1 6.1h29.1c13.1 0 25-6.6 32-16.7 7 10.6 19.2 16.7 30.8 16.7 20.2 0 36.7-16.5 36.7-36.7V176c0-13.5 11-24.5 24.5-24.5 13.5 0 24.5 11 24.5 24.5v195.9H88.2zM-144.4 139.3c0-13.5 11-24.5 24.5-24.5s24.5 11 24.5 24.5v171.4h-24.5c-9.4 0-18 3.6-24.5 9.5C-144.4 320.1-144.4 139.3-144.4 139.3zM-83.2 243.3c0-13.5 11-24.5 24.5-24.5s24.5 11 24.5 24.5v76.7c-6.5-5.8-15.1-9.4-24.5-9.4h-24.5V243.3zM-22 243.3c0-13.5 11-24.5 24.5-24.5s24.5 11 24.5 24.5v104.1c0 13.5-11 24.5-24.5 24.5 -12.1 0-24.5-9.8-24.5-24.5V243.3zM63.7 139.3c-20.3 0-36.7 16.4-36.7 36.7v40.1c-6.5-5.9-15.1-9.5-24.5-9.5 -12.7 0-24 6.6-30.6 16.5 -6.6-9.9-17.9-16.5-30.6-16.5 -9.4 0-18 3.6-24.5 9.5V139.3c0-20.3-16.4-36.7-36.7-36.7 -20.2 0-36.7 16.5-36.7 36.7v232.6c0 67.3 55.1 122.4 122.4 122.4H-22c67.3 0 122.4-55.1 122.4-122.4V176C100.4 155.8 83.9 139.3 63.7 139.3L63.7 139.3zM11.7 335.1c1.7 0 3.1 1.4 3.1 3.1v9.2c0 6.8-5.5 12.2-12.2 12.2 -1.7 0-3.1 1.4-3.1 3.1s1.4 3.1 3.1 3.1c10.1 0 18.4-8.2 18.4-18.4V335.1c0-3.4-2.7-6.1-6.1-6.1h-27.5l0 0c-1.7 0-3.1 1.4-3.1 3.1 0 1.7 1.4 3.1 3.1 3.1h24.5V335.1zM-107.7 270.9c0-1.7-1.4-3.1-3.1-3.1h-18.4c-1.7 0-3.1 1.4-3.1 3.1 0 1.7 1.4 3.1 3.1 3.1h18.4C-109.1 273.9-107.7 272.5-107.7 270.9L-107.7 270.9zM-46.5 295.3c0-1.7-1.4-3.1-3.1-3.1H-67.9c-1.7 0-3.1 1.4-3.1 3.1 0 1.7 1.4 3.1 3.1 3.1h18.4C-47.9 298.4-46.5 297-46.5 295.3L-46.5 295.3zM-6.7 298.4h18.4c1.7 0 3.1-1.4 3.1-3.1 0-1.7-1.4-3.1-3.1-3.1H-6.7c-1.7 0-3.1 1.4-3.1 3.1C-9.8 297-8.4 298.4-6.7 298.4L-6.7 298.4zM72.9 304.5H54.5c-1.7 0-3.1 1.4-3.1 3.1 0 1.7 1.4 3.1 3.1 3.1h18.4c1.7 0 3.1-1.4 3.1-3.1C75.9 305.9 74.6 304.5 72.9 304.5L72.9 304.5zM72.9 224.9H54.5c-1.7 0-3.1 1.4-3.1 3.1 0 1.7 1.4 3.1 3.1 3.1h18.4c1.7 0 3.1-1.4 3.1-3.1C75.9 226.3 74.6 224.9 72.9 224.9L72.9 224.9zM-129.1 194.3h18.4c1.7 0 3.1-1.4 3.1-3.1 0-1.7-1.4-3.1-3.1-3.1h-18.4c-1.7 0-3.1 1.4-3.1 3.1C-132.2 193-130.8 194.3-129.1 194.3L-129.1 194.3z"/></svg>
