<?xml version="1.0" standalone="no"?>
<!DOCTYPE svg PUBLIC "-//W3C//DTD SVG 20010904//EN"
 "http://www.w3.org/TR/2001/REC-SVG-20010904/DTD/svg10.dtd">
<svg version="1.0" xmlns="http://www.w3.org/2000/svg"
 width="582.000000pt" height="582.000000pt" viewBox="0 0 582.000000 582.000000"
 preserveAspectRatio="xMidYMid meet">
<metadata>
Created by potrace 1.11, written by Peter Selinger 2001-2013
</metadata>
<g transform="translate(0.000000,582.000000) scale(0.100000,-0.100000)"
fill="#000000" stroke="none">
<path d="M2593 5806 c-77 -19 -171 -69 -228 -121 -143 -131 -216 -220 -248
-303 -16 -41 -21 -112 -13 -177 2 -16 5 -30 6 -30 1 0 4 -11 6 -25 6 -34 39
-97 73 -140 34 -43 45 -74 34 -95 -5 -9 -34 -35 -64 -58 -31 -23 -73 -55 -95
-72 -21 -16 -86 -77 -144 -135 -253 -253 -424 -555 -496 -872 -1 -5 -2 -9 -3
-10 -2 -2 -4 -14 -7 -28 -2 -14 -8 -52 -14 -85 -15 -92 -24 -201 -22 -290 4
-352 4 -463 -3 -550 -19 -235 -7 -364 55 -580 16 -55 32 -108 35 -117 25 -64
-150 62 -297 215 -54 56 -98 104 -98 107 0 4 -13 22 -30 40 -16 18 -30 39 -30
46 0 7 -4 14 -9 16 -8 3 -71 96 -97 143 -38 69 -71 134 -80 160 -53 138 -68
182 -89 265 -13 52 -26 113 -29 135 -3 22 -10 68 -14 103 -9 62 -8 348 1 387
3 11 8 45 12 75 9 76 41 201 71 285 14 39 28 79 32 90 18 62 165 326 207 371
5 6 24 29 40 50 68 87 137 159 225 234 36 30 67 58 70 61 3 4 43 32 90 63 46
31 80 56 75 56 -24 0 -191 -69 -281 -115 -197 -102 -353 -227 -520 -416 -23
-26 -132 -181 -151 -214 -106 -187 -193 -426 -219 -600 -2 -16 -7 -52 -11 -80
-10 -64 -10 -338 0 -475 14 -200 20 -241 51 -340 40 -125 46 -172 51 -365 4
-148 14 -346 21 -378 2 -10 6 -48 10 -85 3 -37 8 -70 9 -73 2 -3 9 -32 14 -65
6 -32 13 -70 16 -84 3 -14 8 -38 11 -54 2 -16 7 -32 9 -36 2 -3 6 -19 9 -34 3
-15 13 -53 22 -84 10 -31 18 -60 20 -64 1 -5 3 -10 4 -13 1 -3 3 -8 4 -12 16
-70 98 -242 162 -339 122 -187 298 -316 464 -341 19 -3 53 -8 75 -12 97 -16
307 5 400 41 47 19 93 57 103 88 22 62 5 138 -60 270 l-61 124 -2 106 c-2 124
6 202 21 207 7 2 38 -59 74 -144 34 -81 68 -161 76 -177 8 -16 14 -35 14 -43
0 -7 5 -13 10 -13 6 0 10 -7 10 -16 0 -9 6 -28 14 -42 8 -15 44 -88 80 -162
76 -158 128 -254 138 -258 5 -2 8 -8 8 -13 0 -11 91 -153 102 -157 4 -2 8 -9
8 -15 0 -7 10 -23 23 -37 12 -14 38 -45 58 -70 159 -197 402 -358 596 -395 10
-2 18 -4 18 -5 0 -1 9 -3 20 -4 216 -30 354 -27 499 10 223 57 283 200 160
381 -61 90 -111 232 -128 363 -31 238 -23 547 19 700 1 3 5 19 10 35 48 178
181 280 285 219 48 -29 66 -75 98 -249 3 -16 6 -106 6 -200 1 -184 -6 -287
-30 -425 -30 -178 -20 -349 27 -440 37 -74 119 -123 214 -130 191 -13 352 27
504 127 71 46 222 198 282 283 51 72 172 280 162 280 -3 0 -1 6 5 12 32 40
168 412 197 538 2 8 13 53 25 100 12 47 24 95 26 108 6 34 12 61 28 137 8 39
18 90 21 115 3 25 8 52 10 60 2 8 7 35 10 60 3 25 8 56 10 70 11 58 16 95 20
139 3 25 7 57 9 71 3 14 7 51 10 82 3 32 8 82 11 110 31 296 38 552 21 708 -4
41 -10 89 -12 107 -9 90 -88 408 -94 383 -1 -3 -3 -57 -5 -120 -2 -63 -6 -133
-10 -155 -3 -22 -8 -58 -11 -80 -5 -43 -50 -230 -61 -255 -3 -8 -7 -17 -8 -20
-1 -3 -7 -18 -14 -35 -7 -16 -14 -34 -15 -40 -1 -5 -13 -32 -27 -60 -98 -190
-176 -281 -366 -423 -100 -76 -123 -90 -248 -152 -133 -66 -195 -81 -340 -85
-124 -3 -184 -14 -245 -45 -38 -20 -55 -38 -97 -102 -34 -52 -71 -88 -92 -89
-51 -4 -70 -3 -111 8 -43 11 -108 35 -175 63 -16 7 -37 15 -45 18 -20 6 -140
5 -277 -2 l-111 -6 -43 33 c-36 27 -83 92 -106 147 -10 23 -65 92 -93 117 -31
27 -96 56 -175 79 -65 19 -188 79 -206 101 -6 7 -17 13 -25 13 -7 0 -17 6 -21
13 -4 7 -19 20 -33 29 -27 17 -118 105 -162 156 -100 115 -201 317 -232 467
-4 17 -9 41 -12 55 -15 76 -18 120 -19 275 0 186 6 258 30 380 9 44 18 91 21
105 10 52 67 217 96 275 43 88 101 185 110 185 4 0 8 4 8 10 0 17 94 111 130
130 42 21 39 21 92 6 85 -25 170 3 258 84 83 77 95 87 146 123 28 21 56 37 63
37 6 0 11 5 11 10 0 6 8 10 18 10 10 0 22 4 27 9 6 5 42 21 80 36 89 33 111
48 131 87 34 66 4 221 -76 385 -63 128 -153 223 -225 239 -5 1 -28 6 -50 11
-60 14 -173 14 -232 -1z m695 -3731 c57 -19 85 -22 205 -20 118 1 142 -1 160
-16 l21 -17 -24 -35 c-44 -64 -95 -85 -220 -93 -72 -5 -93 -2 -135 16 -27 12
-52 24 -55 28 -3 4 -18 15 -33 25 -31 20 -67 73 -67 99 0 9 7 24 16 32 17 18
28 16 132 -19z"/>
<path d="M4790 5521 c-19 -5 -51 -16 -71 -24 -40 -18 -145 -118 -154 -148 -4
-10 -10 -19 -14 -19 -12 0 -97 -168 -119 -235 -50 -147 -32 -195 98 -263 122
-63 195 -119 280 -213 104 -115 108 -118 168 -146 80 -38 123 -30 230 43 301
205 369 437 198 679 -79 112 -193 228 -264 268 -90 51 -261 79 -352 58z"/>
<path d="M2815 3905 c-71 -32 -132 -93 -238 -238 -55 -75 -97 -168 -116 -257
-30 -134 3 -251 95 -343 123 -123 252 -108 406 47 85 85 110 113 164 181 21
27 46 58 54 68 8 11 20 25 26 31 7 7 22 36 34 64 27 62 25 102 -10 232 -28
102 -76 162 -169 207 -74 37 -175 40 -246 8z"/>
<path d="M4217 3738 c-86 -16 -156 -70 -221 -173 -55 -85 -69 -127 -62 -182 6
-52 28 -129 44 -159 6 -11 27 -59 48 -109 99 -242 198 -354 315 -355 102 0
228 79 282 178 85 157 61 371 -72 641 -60 123 -192 185 -334 159z"/>
<path d="M3268 2664 c-2 -1 -25 -5 -51 -7 -61 -7 -120 -36 -124 -62 -7 -48 32
-91 92 -102 47 -8 145 -66 179 -106 20 -23 43 -50 51 -60 14 -16 17 -15 47 18
49 57 124 90 228 102 66 7 95 24 109 64 10 28 8 33 -21 60 -18 15 -34 26 -37
24 -2 -3 -10 0 -18 6 -7 6 -13 9 -13 5 0 -4 -14 1 -31 9 -17 9 -33 14 -36 11
-3 -3 -13 -1 -22 3 -22 12 -103 21 -303 35 -26 2 -49 2 -50 0z"/>
</g>
</svg>
